<?xml version="1.0" encoding="utf-8"?>
<!-- Generator: Adobe Illustrator 21.1.0, SVG Export Plug-In . SVG Version: 6.00 Build 0)  -->
<svg version="1.1" xmlns="http://www.w3.org/2000/svg" xmlns:xlink="http://www.w3.org/1999/xlink" x="0px" y="0px"
	 viewBox="0 0 288 288.2" style="enable-background:new 0 0 288 288.2;" xml:space="preserve">
<style type="text/css">
	.st0{fill:#303F50;}
	.st1{fill:#FFFFFF;}
</style>
<g id="Layer_2">
	<circle class="st0" cx="144.5" cy="142.6" r="136.5"/>
</g>
<g id="Layer_1">
	<path d="M88,113.6l-33,7l1,57c24.1,0,48.9,0,73,1c7.6,0.3,15.4,2.8,22.9,2.7c7.2-0.1,14.7-2.6,22.1-2.7c10.7,0,21.3,0,32,0
		c3.7,0,10.1,1.2,13.4-1c3.6-2.5,6.2-9.3,8.6-13c10.5-16.6,13.5-39.1,12.1-59c-38.1,0-77.7-2-106-2c-13.7,0-23.3,2.1-35,6
		C94.5,111.1,88.5,110.9,88,113.6z"/>
	<path class="st1" d="M97,111.6v1h2v1l-4-1l-22,6v1c34.1-2.3,71.1-2,105,2.4c10,1.3,19.9,1.6,30,1.6c3.7,0,8.4,1,11-2
		c6.5-0.3,12.2-8.9,17-13v-1l-5-1l-56,1.8l-52-2.7L97,111.6 M237,108.6c-3.9,3.9-17.8,14.5-15,20c-1.7,2.1-2.8,12.5,0,14l-2,28
		c4.8-3.6,10-9.8,10-16c9.1-5.4,7.1-27.8,6-37h1v3h1L237,108.6z"/>
	<path d="M107,109.6l1,1L107,109.6 M231,109.6l1,1L231,109.6 M228,111.6l1,1L228,111.6 M227,113.6l1,1L227,113.6 M222,117.6l1,1
		L222,117.6z"/>
	<path class="st1" d="M70.6,118.9l0.7,0.3L70.6,118.9z"/>
	<path d="M220,119.6v2l2-2H220z"/>
	<path class="st1" d="M59,121.6l1,23h-1v-6h-1l0.3,20l2.7,15l9,1l5,2v-1h-3v-1l12,2c0.4-3.3,3-3,6-3v1h-3v1c28.3-0.1,56.6,1.2,85,1
		c6.8,0,24.4,3,29-2h1h1c3,3.4,14.7,3.3,15.8-2.1c3-14.9-2.5-31.9-2.8-46.9l-90-5L59,121.6z"/>
	<path d="M119.6,121.9l0.7,0.3L119.6,121.9 M90.6,122.9l0.7,0.3L90.6,122.9 M136.6,122.9l0.7,0.3L136.6,122.9 M157,123.6v1h3
		L157,123.6 M222,124.6l1,1L222,124.6z"/>
	<path class="st1" d="M217,126.6l1,1L217,126.6z"/>
	<path d="M96.2,141.4c-6.2,2-2.2,10.8,3.6,8.5C105.2,147.8,101.4,139.8,96.2,141.4 M134.1,141.8c-5.2,2-1.3,9.3,3.5,7.1
		C141.9,147.1,138.2,140.2,134.1,141.8 M174.5,141.6c-4.1,2.9,1,9.8,5.1,6.3C183.6,144.5,178.6,138.6,174.5,141.6z"/>
	<path class="st1" d="M175,141.6l1,1L175,141.6 M178,141.6c-1.4,3.2-1.6,5,2,6L178,141.6 M98,149.6h2l1-7
		C97.2,143.8,97,145.9,98,149.6 M137,142.6l-2,4l4,1L137,142.6 M94.3,144.2l0.3,0.7L94.3,144.2 M132,144.6l1,1L132,144.6 M94,146.6
		l2,2L94,146.6z"/>
	<path d="M228,157.6l1,1L228,157.6z"/>
	<path class="st1" d="M58,172.6l1,1L58,172.6z"/>
	<path d="M99,172.6l1,1L99,172.6 M101,172.6l1,1L101,172.6 M77.6,173.9l0.7,0.3L77.6,173.9 M81.6,173.9l0.7,0.3L81.6,173.9
		 M92,173.6l1,1L92,173.6 M110,173.6v1h4L110,173.6 M165,174.6v1h12L165,174.6z"/>
	<path class="st1" d="M134,177.6l1,1L134,177.6 M150,179.6v1h3L150,179.6z"/>
	<path d="M156,180.6l1,1L156,180.6z"/>
</g>
</svg>
